<?xml version="1.0" encoding="UTF-8"?>
<svg id="Artboard_9" data-name="Artboard 9" xmlns="http://www.w3.org/2000/svg" viewBox="0 0 1000 1000">
  <defs>
    <style>
      .cls-1 {
        fill: #fff;
      }

      .cls-2 {
        fill: #231f20;
        stroke: #231f20;
        stroke-miterlimit: 10;
      }
    </style>
  </defs>
  <circle class="cls-2" cx="500" cy="500" r="495"/>
  <g>
    <path class="cls-1" d="M516.57,289.56l10.91,26.62c4.54,10.91,5.98,20.22,4.32,27.95-1.67,7.73-8.41,11.59-20.22,11.59h-12.27v5.91h127.7v-5.91c-11.52,0-21.06-2.88-28.63-8.63-7.58-5.75-14.54-16.2-20.9-31.36l-20.58-49.15c-3.71,1.16-7.36,2.51-10.96,4.06-10.84,4.65-20.62,10.97-29.36,18.93Z"/>
    <path class="cls-1" d="M551.42,253.51L457.96,30.33h-79.53v5.91c9.09,0,17.42,1.52,24.99,4.54,7.57,3.03,13.18,9.09,16.82,18.18l12.72,30.9-99.07,237.22c-3.34,8.18-8.86,15-16.59,20.45-7.72,5.45-15.38,8.18-22.95,8.18v5.91h70.89v-5.91c-4.85,0-9.25-.68-13.18-2.04-3.94-1.36-7.05-3.33-9.32-5.91-2.27-2.57-3.71-5.75-4.32-9.54-.61-3.79.15-8.1,2.27-12.95l29.99-72.26h130.88l6.01,14.65c2.42-1.17,4.87-2.31,7.38-3.39,11.37-4.9,23.53-8.46,36.45-10.76ZM373.43,247.1l62.71-150.42,62.71,150.42h-125.43Z"/>
    <path class="cls-1" d="M592.03,592.02c20.34-.62,37.98-4.19,52.86-10.78,16.41-7.27,29.98-16.88,40.71-28.86,10.73-11.96,18.6-25.6,23.65-40.9,5.03-15.29,7.56-30.82,7.56-46.58h-6.34c0,13.33-2.03,26.21-6.09,38.63-4.07,12.43-10.24,23.41-18.53,32.95-8.29,9.54-18.85,17.12-31.69,22.72-12.84,5.61-28.03,8.41-45.58,8.41-5.29,0-10.44-.25-15.45-.74,0,.87.04,1.72.04,2.6,0,7.61-.4,15.12-1.13,22.55Z"/>
    <path class="cls-1" d="M427.46,493.76c8.29,20.15,19.99,37.49,35.1,52.03,15.11,14.54,33.15,25.9,54.11,34.08,8.45,3.3,17.25,5.9,26.35,7.86.38-6.11.6-12.2.6-18.27s-.2-12.37-.59-18.27c-12.97-7.4-24.21-16.9-33.67-28.58-11.54-14.24-20.4-31.28-26.57-51.13-4.2-13.48-6.93-27.86-8.28-43.1-3.16-1.65-6.39-3.2-9.74-4.57-15.12-6.19-31.56-9.4-49.27-9.71-.29,4.61-.48,9.26-.48,13.98,0,23.63,4.15,45.52,12.43,65.67Z"/>
    <path class="cls-1" d="M591.99,261.31c28.92,0,51.68,8.49,68.25,25.45,16.58,16.97,24.86,44.54,24.86,82.71h5.85v-114.06h-6.34c0,6.06-1.46,10.08-4.39,12.04-2.92,1.97-5.85,2.95-8.78,2.95-3.9,0-8.29-1.06-13.16-3.18-4.88-2.12-10.65-4.39-17.31-6.82-6.67-2.42-14.31-4.69-22.91-6.82-8.62-2.12-18.77-3.18-30.47-3.18-12.68,0-24.73,1.06-36.19,3.1l5.47,13.06c11.19-3.5,22.9-5.26,35.11-5.26Z"/>
    <path class="cls-1" d="M454.55,409.96c6.32.62,12.68,1.58,19.08,2.86-.05-2.17-.11-4.34-.11-6.54,0-23.63,3.08-44.54,9.26-62.71,6.17-18.18,14.63-33.32,25.35-45.44,2.69-3.04,5.5-5.89,8.43-8.56l-8.98-21.9c-18.25,8.87-33.92,20.38-46.98,34.55-14.79,16.06-26.08,34.92-33.88,56.58-5.65,15.69-9.22,32.15-10.78,49.35h4.98c10,0,21.2.61,33.63,1.82Z"/>
    <path class="cls-1" d="M506.13,452.9c11.66,12.88,20.82,29.01,27.49,48.4,5.05,14.71,8.18,31.35,9.41,49.9,2.84,1.62,5.73,3.17,8.74,4.59,12.55,5.91,26.33,9.6,41.34,11.08-.2-23.41-3.05-43.54-8.6-60.34-5.76-17.42-13.34-32.11-22.72-44.08-9.4-11.96-20.15-21.51-32.27-28.63-12.12-7.12-24.54-12.57-37.27-16.36-6.25-1.86-12.46-3.4-18.63-4.64.13,5.29.43,10.48.88,15.57,11.85,6.2,22.41,14.35,31.62,24.52Z"/>
    <path class="cls-1" d="M543.03,587.74c-.82,13.12-2.5,26.34-5.08,39.67-.49,2.53-1.04,5.03-1.64,7.5l27.98,39.04c8.57-12.19,15.11-25.64,19.56-40.4,4.07-13.51,6.78-27.36,8.18-41.53-2.1.06-4.21.13-6.37.13-14.94,0-29.14-1.49-42.63-4.4Z"/>
    <path class="cls-1" d="M405.02,733.52c-18.48,0-31.58-1.51-39.31-4.54-7.73-3.02-11.59-9.69-11.59-20v-270.85c0-10.3,4.39-16.89,13.18-19.77,8.78-2.88,23.93-4.32,45.44-4.32.93,0,1.84.04,2.76.06.12-2,.26-3.99.44-5.97h-143.17v5.91c10.91,0,18.86,1.44,23.86,4.32,5,2.88,7.5,9.62,7.5,20.22v270.39c0,10.61-2.5,17.35-7.5,20.22-5,2.88-12.95,4.32-23.86,4.32v5.91h136.33c24.02,0,45.34-2.32,64.08-6.87v-13.24c-17.81,9.44-40.5,14.2-68.17,14.2Z"/>
    <path class="cls-1" d="M479.1,715.97v15.09c6.03-1.67,11.81-3.56,17.27-5.72,11.68-4.64,22.19-10.04,31.57-16.2l-15.84-22.11c-8.69,11.29-19.7,20.93-33,28.94Z"/>
    <path class="cls-1" d="M657.24,603.28v5.91c5.45,0,10.15.16,14.09.45,3.93.3,7.19,1.21,9.77,2.73,2.57,1.52,4.54,3.94,5.91,7.27,1.36,3.34,2.04,8.03,2.04,14.09l.45,214.95-125.22-174.73c-3.39,4.83-7.07,9.48-11.11,13.9-7.21,7.9-15.62,14.99-25.23,21.29l161.57,225.43h5.91l-.45-303.11c.3-5.45,1.14-9.69,2.5-12.72,1.36-3.02,3.41-5.23,6.14-6.59,2.73-1.36,6.06-2.19,10-2.5,3.93-.3,8.48-.45,13.63-.45v-5.91h-69.99Z"/>
    <path class="cls-1" d="M473.19,904.12c0,6.06-.68,10.76-2.04,14.09-1.36,3.34-3.34,5.76-5.91,7.27-2.58,1.52-5.91,2.43-10,2.73-4.09.3-8.86.45-14.31.45v5.91h70.44v-5.91c-5.45,0-10.15-.15-14.09-.45-3.94-.3-7.27-1.21-10-2.73-2.73-1.51-4.77-3.93-6.14-7.27-1.36-3.33-2.04-8.02-2.04-14.09v-173.05c-1.93.53-3.92,1.02-5.91,1.5v171.56Z"/>
    <path class="cls-1" d="M472.28,603.28h-45.9v5.91c10.3,0,19.31,1.67,27.04,5,7.72,3.34,14.31,9.54,19.77,18.63v86.5c.52-.28,1.08-.51,1.59-.8,1.48-.82,2.89-1.69,4.32-2.55v-74.98l33,46.04c1.73-2.25,3.4-4.54,4.94-6.91,8.83-13.58,15.25-28.65,19.26-45.22l-22.67-31.63h-41.35Z"/>
  </g>
</svg>