<?xml version="1.0" encoding="UTF-8"?>
<svg id="Artboard_9" data-name="Artboard 9" xmlns="http://www.w3.org/2000/svg" viewBox="0 0 1000 1000">
  <defs>
    <style>
      .cls-1 {
        fill: #fff;
      }
    </style>
  </defs>
  <path class="cls-1" d="M517.18,299.98l11.32,27.6c4.71,11.31,6.2,20.97,4.48,28.98-1.73,8.01-8.72,12.02-20.97,12.02h-12.72v6.13h132.42v-6.13c-11.94,0-21.84-2.98-29.69-8.95-7.86-5.96-15.08-16.8-21.68-32.52l-21.35-50.97c-3.85,1.2-7.64,2.61-11.37,4.21-11.24,4.83-21.38,11.37-30.44,19.63Z"/>
  <path class="cls-1" d="M553.32,262.59L456.4,31.17h-82.47v6.13c9.42,0,18.06,1.58,25.92,4.71,7.85,3.14,13.67,9.42,17.44,18.85l13.19,32.04-102.73,245.99c-3.46,8.48-9.19,15.55-17.2,21.21-8.01,5.66-15.95,8.48-23.8,8.48v6.13h73.51v-6.13c-5.03,0-9.59-.71-13.67-2.12-4.09-1.41-7.31-3.45-9.66-6.13-2.36-2.67-3.85-5.96-4.48-9.9-.64-3.93.15-8.4,2.36-13.43l31.1-74.93h135.72l6.23,15.19c2.51-1.22,5.05-2.4,7.65-3.52,11.79-5.08,24.4-8.77,37.8-11.16ZM368.75,255.95l65.03-155.98,65.03,155.98h-130.06Z"/>
  <path class="cls-1" d="M595.43,613.62c21.1-.64,39.39-4.34,54.82-11.18,17.02-7.54,31.09-17.51,42.21-29.92,11.12-12.41,19.29-26.54,24.52-42.41,5.22-15.86,7.84-31.96,7.84-48.3h-6.57c0,13.83-2.11,27.18-6.32,40.06-4.22,12.89-10.62,24.27-19.21,34.17-8.59,9.9-19.55,17.75-32.86,23.56-13.32,5.82-29.07,8.72-47.27,8.72-5.48,0-10.82-.26-16.02-.77,0,.91.04,1.78.04,2.7,0,7.89-.41,15.68-1.17,23.38Z"/>
  <path class="cls-1" d="M424.78,511.73c8.59,20.9,20.73,38.88,36.4,53.96,15.67,15.08,34.38,26.86,56.11,35.34,8.76,3.42,17.88,6.11,27.33,8.15.4-6.34.62-12.66.62-18.95s-.21-12.83-.61-18.94c-13.45-7.67-25.11-17.52-34.91-29.64-11.97-14.76-21.15-32.44-27.55-53.02-4.35-13.98-7.19-28.89-8.58-44.69-3.28-1.71-6.63-3.32-10.1-4.74-15.68-6.42-32.72-9.75-51.09-10.07-.3,4.78-.5,9.6-.5,14.5,0,24.5,4.3,47.2,12.89,68.09Z"/>
  <path class="cls-1" d="M595.39,270.68c29.99,0,53.59,8.8,70.78,26.39,17.19,17.6,25.78,46.18,25.78,85.77h6.07v-118.28h-6.57c0,6.29-1.52,10.45-4.55,12.49-3.03,2.05-6.07,3.06-9.1,3.06-4.05,0-8.59-1.1-13.65-3.3-5.06-2.19-11.04-4.55-17.95-7.07-6.91-2.51-14.83-4.87-23.76-7.07-8.93-2.19-19.46-3.3-31.6-3.3-13.15,0-25.64,1.1-37.53,3.22l5.67,13.55c11.61-3.63,23.74-5.45,36.4-5.45Z"/>
  <path class="cls-1" d="M452.87,424.83c6.55.64,13.15,1.64,19.79,2.97-.06-2.25-.11-4.5-.11-6.79,0-24.5,3.2-46.18,9.6-65.03,6.4-18.85,15.17-34.56,26.29-47.12,2.79-3.15,5.7-6.11,8.74-8.88l-9.31-22.71c-18.93,9.19-35.18,21.13-48.72,35.83-15.34,16.66-27.05,36.21-35.13,58.67-5.86,16.27-9.57,33.34-11.18,51.18h5.16c10.37,0,21.99.63,34.87,1.88Z"/>
  <path class="cls-1" d="M506.36,469.36c12.09,13.36,21.59,30.09,28.51,50.19,5.24,15.26,8.49,32.51,9.75,51.74,2.95,1.68,5.95,3.29,9.07,4.76,13.01,6.13,27.3,9.95,42.87,11.49-.21-24.27-3.16-45.15-8.91-62.57-5.97-18.06-13.83-33.3-23.56-45.71-9.74-12.41-20.9-22.3-33.46-29.69-12.57-7.38-25.45-13.03-38.64-16.97-6.48-1.93-12.92-3.52-19.32-4.81.14,5.48.44,10.86.91,16.14,12.29,6.43,23.23,14.88,32.79,25.42Z"/>
  <path class="cls-1" d="M544.62,609.18c-.85,13.6-2.6,27.31-5.27,41.14-.51,2.63-1.08,5.22-1.7,7.78l29.01,40.48c8.88-12.64,15.67-26.59,20.29-41.9,4.22-14.01,7.03-28.37,8.49-43.06-2.18.07-4.36.13-6.61.13-15.49,0-30.22-1.55-44.2-4.57Z"/>
  <path class="cls-1" d="M401.51,760.35c-19.17,0-32.75-1.57-40.76-4.71-8.01-3.14-12.02-10.05-12.02-20.73v-280.86c0-10.68,4.55-17.51,13.67-20.5,9.11-2.98,24.81-4.48,47.12-4.48.96,0,1.91.05,2.86.06.13-2.07.27-4.14.46-6.19h-148.46v6.13c11.31,0,19.56,1.5,24.74,4.48,5.18,2.99,7.78,9.98,7.78,20.97v280.39c0,11-2.59,17.99-7.78,20.97-5.18,2.99-13.43,4.48-24.74,4.48v6.13h141.37c24.91,0,47.01-2.41,66.45-7.12v-13.73c-18.46,9.79-42,14.73-70.69,14.73Z"/>
  <path class="cls-1" d="M478.32,742.16v15.65c6.26-1.73,12.25-3.69,17.9-5.94,12.11-4.81,23.01-10.41,32.74-16.8l-16.43-22.92c-9.01,11.71-20.42,21.71-34.22,30.01Z"/>
  <path class="cls-1" d="M663.05,625.3v6.13c5.66,0,10.52.16,14.61.47,4.08.32,7.46,1.26,10.13,2.83,2.67,1.57,4.71,4.09,6.13,7.54,1.41,3.46,2.12,8.33,2.12,14.61l.47,222.9-129.85-181.19c-3.52,5.01-7.33,9.83-11.52,14.42-7.47,8.19-16.2,15.54-26.16,22.08l167.54,233.76h6.13l-.47-314.32c.31-5.65,1.18-10.05,2.59-13.19,1.42-3.14,3.53-5.42,6.36-6.83,2.83-1.41,6.28-2.28,10.37-2.59,4.08-.31,8.79-.47,14.14-.47v-6.13h-72.57Z"/>
  <path class="cls-1" d="M472.2,937.26c0,6.29-.71,11.16-2.12,14.61-1.42,3.46-3.46,5.97-6.13,7.54-2.67,1.58-6.13,2.52-10.37,2.83-4.24.32-9.19.47-14.84.47v6.13h73.04v-6.13c-5.66,0-10.53-.15-14.61-.47-4.09-.31-7.54-1.25-10.37-2.83-2.83-1.57-4.95-4.08-6.36-7.54-1.41-3.45-2.12-8.32-2.12-14.61v-179.45c-2,.55-4.06,1.05-6.13,1.55v177.9Z"/>
  <path class="cls-1" d="M471.26,625.3h-47.6v6.13c10.68,0,20.03,1.73,28.04,5.18,8.01,3.46,14.84,9.9,20.5,19.32v89.7c.54-.29,1.12-.53,1.65-.83,1.54-.85,3-1.75,4.48-2.64v-77.75l34.22,47.74c1.79-2.33,3.52-4.7,5.13-7.17,9.16-14.08,15.81-29.71,19.98-46.89l-23.51-32.8h-42.88Z"/>
</svg>