<?xml version="1.0" encoding="UTF-8"?>
<svg id="Logo" xmlns="http://www.w3.org/2000/svg" viewBox="0 0 461.29 915.49">
  <defs>
    <style>
      .cls-1 {
        fill: #6d6e71;
      }
    </style>
  </defs>
  <path class="cls-1" d="M246.92,262.28l10.97,26.75c4.57,10.96,6.01,20.32,4.34,28.09-1.68,7.77-8.45,11.65-20.32,11.65h-12.33v5.94h128.34v-5.94c-11.58,0-21.17-2.89-28.77-8.68-7.61-5.78-14.61-16.28-21.01-31.51l-20.69-49.4c-3.73,1.17-7.4,2.53-11.02,4.08-10.89,4.68-20.72,11.02-29.5,19.03Z"/>
  <path class="cls-1" d="M281.95,226.05L188.02,1.76h-79.93v5.94c9.13,0,17.51,1.53,25.12,4.57,7.61,3.05,13.24,9.13,16.9,18.27l12.79,31.06-99.56,238.41c-3.35,8.22-8.91,15.07-16.67,20.55-7.76,5.48-15.46,8.22-23.06,8.22v5.94h71.25v-5.94c-4.87,0-9.29-.68-13.24-2.05-3.96-1.37-7.08-3.35-9.36-5.94-2.28-2.58-3.73-5.78-4.34-9.59-.62-3.8.15-8.14,2.28-13.02l30.14-72.62h131.54l6.04,14.72c2.43-1.18,4.89-2.32,7.41-3.41,11.42-4.92,23.65-8.5,36.63-10.81ZM103.07,219.61l63.03-151.17,63.03,151.17h-126.05Z"/>
  <path class="cls-1" d="M322.76,566.25c20.45-.62,38.17-4.21,53.13-10.83,16.49-7.31,30.13-16.97,40.91-29,10.78-12.02,18.7-25.73,23.76-41.1,5.06-15.37,7.6-30.98,7.6-46.81h-6.37c0,13.4-2.04,26.34-6.12,38.82-4.09,12.49-10.29,23.52-18.62,33.11-8.33,9.59-18.95,17.21-31.85,22.84-12.91,5.64-28.17,8.45-45.81,8.45-5.31,0-10.49-.25-15.53-.74,0,.88.04,1.73.04,2.62,0,7.65-.4,15.2-1.14,22.66Z"/>
  <path class="cls-1" d="M157.37,467.5c8.33,20.25,20.09,37.68,35.28,52.29,15.19,14.61,33.32,26.03,54.38,34.25,8.49,3.31,17.33,5.93,26.49,7.9.39-6.14.6-12.27.6-18.36s-.21-12.43-.6-18.36c-13.03-7.43-24.33-16.98-33.84-28.73-11.6-14.31-20.5-31.44-26.7-51.38-4.22-13.55-6.97-28-8.32-43.32-3.18-1.66-6.42-3.21-9.79-4.59-15.19-6.22-31.71-9.45-49.52-9.76-.29,4.64-.48,9.31-.48,14.05,0,23.75,4.17,45.75,12.5,66Z"/>
  <path class="cls-1" d="M322.73,233.89c29.07,0,51.94,8.53,68.59,25.58,16.66,17.06,24.99,44.76,24.99,83.12h5.88v-114.63h-6.37c0,6.09-1.47,10.13-4.41,12.1-2.94,1.98-5.88,2.97-8.82,2.97-3.92,0-8.33-1.06-13.23-3.2-4.9-2.13-10.7-4.41-17.39-6.85-6.7-2.43-14.38-4.72-23.03-6.85-8.66-2.13-18.86-3.2-30.62-3.2-12.75,0-24.85,1.07-36.37,3.12l5.5,13.13c11.25-3.52,23.01-5.29,35.28-5.29Z"/>
  <path class="cls-1" d="M184.6,383.28c6.35.62,12.75,1.58,19.18,2.88-.05-2.18-.11-4.36-.11-6.58,0-23.75,3.1-44.76,9.31-63.03,6.2-18.27,14.7-33.49,25.48-45.67,2.71-3.05,5.53-5.92,8.47-8.6l-9.03-22.01c-18.35,8.91-34.09,20.48-47.21,34.73-14.87,16.14-26.21,35.1-34.05,56.86-5.68,15.77-9.27,32.31-10.84,49.6h5c10.05,0,21.31.61,33.8,1.83Z"/>
  <path class="cls-1" d="M236.44,426.44c11.72,12.95,20.93,29.16,27.63,48.64,5.08,14.78,8.23,31.51,9.45,50.15,2.85,1.63,5.76,3.19,8.79,4.61,12.61,5.94,26.46,9.65,41.55,11.13-.2-23.53-3.07-43.76-8.64-60.64-5.79-17.5-13.4-32.27-22.84-44.3-9.44-12.02-20.25-21.62-32.43-28.77-12.18-7.15-24.66-12.63-37.45-16.44-6.28-1.87-12.52-3.42-18.73-4.66.13,5.32.43,10.53.88,15.65,11.91,6.23,22.52,14.42,31.78,24.64Z"/>
  <path class="cls-1" d="M273.51,561.95c-.83,13.18-2.52,26.47-5.11,39.87-.49,2.55-1.05,5.06-1.65,7.54l28.12,39.23c8.61-12.25,15.19-25.77,19.66-40.6,4.09-13.58,6.82-27.5,8.23-41.74-2.12.06-4.23.13-6.4.13-15.02,0-29.28-1.5-42.84-4.43Z"/>
  <path class="cls-1" d="M134.82,708.46c-18.58,0-31.74-1.52-39.51-4.57-7.77-3.04-11.65-9.74-11.65-20.1v-272.2c0-10.35,4.41-16.97,13.24-19.87,8.83-2.89,24.05-4.34,45.67-4.34.93,0,1.85.04,2.78.06.13-2.01.26-4.01.44-6H1.91v5.94c10.96,0,18.95,1.45,23.98,4.34,5.02,2.9,7.54,9.67,7.54,20.32v271.75c0,10.66-2.51,17.43-7.54,20.32-5.02,2.9-13.02,4.34-23.98,4.34v5.94h137.01c24.14,0,45.56-2.34,64.4-6.9v-13.31c-17.9,9.49-40.7,14.27-68.51,14.27Z"/>
  <path class="cls-1" d="M209.26,690.83v15.17c6.06-1.68,11.87-3.57,17.35-5.75,11.73-4.66,22.3-10.09,31.73-16.28l-15.92-22.22c-8.73,11.35-19.8,21.04-33.16,29.08Z"/>
  <path class="cls-1" d="M388.3,577.57v5.94c5.48,0,10.2.16,14.16.46,3.95.31,7.23,1.22,9.82,2.74,2.58,1.53,4.57,3.96,5.94,7.31,1.37,3.35,2.05,8.07,2.05,14.16l.46,216.03-125.85-175.61c-3.41,4.85-7.11,9.52-11.17,13.97-7.24,7.94-15.7,15.07-25.36,21.4l162.37,226.55h5.94l-.46-304.63c.3-5.48,1.14-9.74,2.51-12.79,1.37-3.04,3.43-5.25,6.17-6.62,2.74-1.37,6.09-2.21,10.05-2.51,3.95-.3,8.52-.46,13.7-.46v-5.94h-70.34Z"/>
  <path class="cls-1" d="M203.33,879.91c0,6.09-.68,10.81-2.05,14.16-1.37,3.35-3.35,5.79-5.94,7.31-2.59,1.53-5.94,2.44-10.05,2.74-4.11.31-8.91.45-14.39.45v5.94h70.79v-5.94c-5.48,0-10.2-.15-14.16-.45-3.96-.3-7.31-1.21-10.05-2.74-2.74-1.52-4.79-3.95-6.17-7.31-1.37-3.35-2.05-8.06-2.05-14.16v-173.92c-1.94.54-3.94,1.02-5.94,1.51v172.41Z"/>
  <path class="cls-1" d="M202.41,577.57h-46.13v5.94c10.35,0,19.41,1.68,27.18,5.02,7.76,3.35,14.39,9.59,19.87,18.73v86.93c.52-.28,1.08-.52,1.6-.8,1.49-.83,2.91-1.7,4.34-2.56v-75.35l33.16,46.27c1.74-2.26,3.42-4.56,4.97-6.95,8.88-13.65,15.32-28.8,19.36-45.44l-22.78-31.79h-41.56Z"/>
</svg>