<?xml version="1.0" encoding="UTF-8"?>
<svg id="Logo_Combination_Mark_Final_" data-name="Logo Combination Mark (Final)" xmlns="http://www.w3.org/2000/svg" viewBox="0 0 861.54 75.83">
  <defs>
    <style>
      .cls-1, .cls-2 {
        fill: #231f20;
      }

      .cls-3 {
        fill: #fff;
      }

      .cls-2 {
        font-family: Maharlika-Regular, Maharlika;
        font-size: 72px;
        letter-spacing: .1em;
      }
    </style>
  </defs>
  <text class="cls-2" transform="translate(16.67 64.5)"><tspan x="0" y="0" xml:space="preserve">A  </tspan></text>
  <path class="cls-1" d="M196.11,64.99c-3.62,0-6.94-.63-9.97-1.9-3.03-1.27-5.64-3.03-7.82-5.28-2.18-2.25-3.87-4.94-5.07-8.07-1.2-3.12-1.8-6.52-1.8-10.18s.56-7.39,1.69-10.74c1.13-3.36,2.76-6.28,4.9-8.77,2.14-2.49,4.76-4.45,7.86-5.88,3.1-1.43,6.6-2.15,10.5-2.15,1.69,0,3.16.16,4.4.49,1.24.33,2.35.68,3.31,1.06.96.38,1.8.73,2.5,1.06.7.33,1.34.49,1.9.49.42,0,.84-.15,1.27-.46.42-.3.63-.93.63-1.87h.92v17.68h-.85c0-5.92-1.2-10.19-3.59-12.82-2.4-2.63-5.68-3.95-9.86-3.95-2.35,0-4.57.48-6.66,1.44-2.09.96-3.91,2.38-5.46,4.26-1.55,1.88-2.77,4.23-3.66,7.04-.89,2.82-1.34,6.06-1.34,9.72s.45,7.03,1.34,10.11c.89,3.08,2.17,5.72,3.84,7.93,1.67,2.21,3.71,3.92,6.13,5.14,2.42,1.22,5.15,1.83,8.21,1.83,2.54,0,4.73-.43,6.59-1.3,1.85-.87,3.38-2.04,4.58-3.52,1.2-1.48,2.09-3.18,2.68-5.11.59-1.93.88-3.92.88-5.99h.92c0,2.44-.36,4.85-1.09,7.22-.73,2.37-1.87,4.49-3.42,6.34-1.55,1.86-3.51,3.35-5.88,4.47-2.37,1.13-5.22,1.69-8.56,1.69Z"/>
  <path class="cls-1" d="M224.93,64.02c1.74,0,3.01-.23,3.81-.69.8-.46,1.2-1.53,1.2-3.23V16.91c0-1.69-.4-2.77-1.2-3.23-.8-.46-2.07-.69-3.81-.69v-.94h18v.94c-1.69,0-2.94.22-3.74.65-.8.44-1.22,1.45-1.27,3.05v20.54h22.28v-20.32c0-1.69-.41-2.77-1.23-3.23-.82-.46-2.11-.69-3.85-.69v-.94h18.07v.94c-1.74,0-3.01.23-3.81.69-.8.46-1.2,1.54-1.2,3.23v43.33c0,1.64.4,2.69,1.2,3.12.8.44,2.07.65,3.81.65v.94h-18.07v-.94c1.74,0,3.02-.23,3.85-.69.82-.46,1.23-1.53,1.23-3.23v-21.92h-22.28v22.64c.1,1.4.56,2.29,1.38,2.65.82.36,2.03.54,3.63.54v.94h-18v-.94Z"/>
  <path class="cls-1" d="M283.06,38.37c0-3.66.66-7.08,1.97-10.27,1.31-3.19,3.11-5.98,5.38-8.37,2.27-2.39,4.95-4.27,8.02-5.63,3.07-1.36,6.34-2.04,9.81-2.04s6.75.68,9.85,2.04c3.1,1.36,5.79,3.24,8.09,5.63,2.3,2.39,4.12,5.18,5.45,8.37,1.34,3.19,2.01,6.61,2.01,10.27s-.67,7.1-2.01,10.34c-1.34,3.24-3.15,6.06-5.45,8.48-2.3,2.42-4.99,4.32-8.09,5.7-3.1,1.38-6.38,2.08-9.85,2.08s-6.74-.69-9.81-2.08c-3.07-1.38-5.75-3.28-8.02-5.7-2.28-2.41-4.07-5.24-5.38-8.48-1.31-3.24-1.97-6.68-1.97-10.34ZM307.54,13.04c-2.67,0-5.01.67-7,2-1.99,1.34-3.66,3.13-5,5.38-1.34,2.25-2.35,4.87-3.02,7.84-.68,2.98-1.02,6.08-1.02,9.32s.34,6.66,1.02,9.85c.68,3.19,1.72,6,3.13,8.44,1.41,2.44,3.21,4.4,5.42,5.87,2.2,1.48,4.83,2.22,7.88,2.22,2.81,0,5.24-.66,7.28-1.97,2.04-1.31,3.73-3.11,5.06-5.38,1.34-2.27,2.32-4.91,2.96-7.91.63-3,.95-6.19.95-9.57s-.33-6.48-.98-9.6c-.66-3.12-1.7-5.9-3.13-8.34-1.43-2.44-3.26-4.41-5.49-5.91-2.23-1.5-4.91-2.25-8.06-2.25Z"/>
  <path class="cls-1" d="M395.25,64.02c1.75,0,3.02-.23,3.82-.69.8-.46,1.2-1.54,1.2-3.23V16.88c0-1.69-.4-2.77-1.2-3.23-.8-.46-2.07-.69-3.82-.69v-.94h23.72c1.6,0,3.39.1,5.38.29,1.99.19,4,.59,6.04,1.2,2.04.61,4.02,1.48,5.97,2.61,1.94,1.14,3.66,2.66,5.17,4.58,1.5,1.91,2.71,4.26,3.64,7.04.92,2.78,1.38,6.14,1.38,10.06,0,3.53-.5,6.95-1.49,10.24-.99,3.29-2.63,6.19-4.91,8.68-2.28,2.49-5.31,4.49-9.09,5.99-3.78,1.5-8.44,2.25-13.97,2.25h-21.82v-.94ZM416.42,64.02c4.56,0,8.28-.8,11.17-2.4,2.88-1.6,5.14-3.64,6.77-6.14,1.62-2.49,2.74-5.3,3.35-8.42.61-3.12.91-6.21.91-9.26,0-4.16-.53-7.79-1.6-10.89-1.07-3.1-2.54-5.68-4.4-7.74-1.87-2.06-4.07-3.61-6.62-4.65-2.55-1.04-5.32-1.56-8.33-1.56-3.44,0-5.87.23-7.28.69-1.41.46-2.11,1.51-2.11,3.16v43.28c0,1.65.62,2.71,1.86,3.19,1.24.48,3.33.73,6.29.73Z"/>
  <path class="cls-1" d="M461.42,60.09V16.88c0-1.69-.4-2.77-1.2-3.23-.8-.46-2.07-.69-3.81-.69v-.94h18.08v.94c-1.74,0-3.03.23-3.85.69-.82.46-1.24,1.54-1.24,3.23v43.21c0,1.7.41,2.77,1.24,3.23.82.46,2.08.69,3.78.69l.07.94h-18.08v-.94c1.74,0,3.01-.23,3.81-.69.8-.46,1.2-1.54,1.2-3.23Z"/>
  <path class="cls-1" d="M484.36,64.02c1.6,0,2.81-.19,3.63-.58.82-.39,1.31-1.26,1.45-2.61l-.07-43.94c0-1.69-.4-2.77-1.2-3.23-.8-.46-2.07-.69-3.81-.69v-.94h37.55l3.85,11.47h-.94c-.68-2.08-1.41-3.79-2.18-5.12-.77-1.33-1.68-2.4-2.72-3.2-1.04-.8-2.3-1.35-3.78-1.67-1.48-.31-3.23-.47-5.27-.47-2.61,0-4.78.04-6.5.11-1.72.07-3.1.24-4.14.51-1.04.27-1.77.65-2.18,1.16-.41.51-.62,1.2-.62,2.07v19.83h8.35c1.99,0,3.53-.24,4.65-.73,1.11-.48,1.94-1.18,2.47-2.11.53-.92.87-2.07,1.02-3.45.15-1.38.22-2.99.22-4.83h.94v24.04h-.94c0-1.84-.05-3.5-.15-4.97-.1-1.48-.4-2.73-.91-3.78s-1.33-1.84-2.47-2.4c-1.14-.56-2.75-.83-4.83-.83h-8.35v22.44c0,.82.16,1.49.47,2s.85.91,1.6,1.2c.75.29,1.75.48,3.01.58,1.26.1,2.81.15,4.65.15,3.1,0,5.76-.52,7.99-1.56,2.23-1.04,4.14-2.46,5.74-4.25,1.6-1.79,2.95-3.9,4.07-6.32,1.11-2.42,2.08-5.01,2.9-7.77h.94l-5.16,20.84h-39.29v-.94Z"/>
  <path class="cls-1" d="M621.73,12.02h6.61l28.1,39.22-.07-34.35c0-.97-.11-1.72-.33-2.25-.22-.53-.53-.92-.94-1.16s-.93-.39-1.56-.44c-.63-.05-1.38-.07-2.25-.07v-.94h11.18v.94c-.82,0-1.55.02-2.18.07-.63.05-1.16.18-1.6.4s-.76.57-.98,1.05c-.22.48-.35,1.16-.4,2.03l.07,48.44h-.94l-33.62-46.92v42.05c0,.97.11,1.72.33,2.25.22.53.55.92.98,1.16.44.24.97.39,1.6.44.63.05,1.38.07,2.25.07v.94h-11.26v-.94c.87,0,1.63-.02,2.29-.07s1.19-.19,1.6-.44c.41-.24.73-.63.94-1.16.22-.53.33-1.28.33-2.25V16.74c-.87-1.45-1.92-2.44-3.16-2.98-1.23-.53-2.68-.8-4.32-.8v-.94h7.33Z"/>
  <path class="cls-1" d="M695.5,64.96c-3,0-5.89-.52-8.66-1.55-2.77-1.03-5.23-2.59-7.39-4.68-2.16-2.09-3.88-4.72-5.17-7.89-1.29-3.17-1.94-6.91-1.94-11.23s.66-8.33,1.97-11.76c1.31-3.43,3.11-6.31,5.39-8.66,2.28-2.35,4.95-4.13,8.03-5.35,3.07-1.22,6.35-1.83,9.82-1.83,2.21,0,4.05.19,5.53.56,1.48.38,2.76.77,3.84,1.2,1.08.42,2.04.82,2.89,1.2.85.38,1.71.56,2.6.56.94,0,1.63-.26,2.08-.77.44-.52.67-1.17.67-1.97h.92l1.06,15.77h-.85c-1.08-4.6-3.18-8.22-6.3-10.88-3.12-2.65-7.05-3.98-11.79-3.98-5.68,0-10,1.93-12.95,5.77-2.96,3.85-4.43,9.32-4.43,16.4,0,1.83.15,3.74.46,5.74.31,1.99.78,3.95,1.41,5.88.63,1.93,1.45,3.74,2.46,5.46,1.01,1.71,2.21,3.23,3.59,4.54,1.38,1.31,2.98,2.36,4.79,3.13,1.81.77,3.84,1.16,6.09,1.16,2.07,0,3.78-.25,5.14-.74,1.36-.49,2.45-1.22,3.27-2.18.82-.96,1.41-2.16,1.76-3.59.35-1.43.53-3.09.53-4.96v-9.15c0-1.36-.39-2.24-1.16-2.64-.77-.4-2.27-.6-4.47-.6v-.92h18.3v.92c-1.36,0-2.52.2-3.48.6-.96.4-1.44,1.28-1.44,2.64l.07,22.95h-.99c0-2.63-.18-4.46-.53-5.49-.35-1.03-1.14-1.55-2.36-1.55-.8,0-1.56.23-2.29.7-.73.47-1.75,1.29-3.06,2.46-1.13.99-2.21,1.78-3.24,2.39-1.03.61-2.09,1.09-3.17,1.44-1.08.35-2.18.59-3.31.7-1.13.12-2.35.18-3.66.18Z"/>
  <path class="cls-1" d="M732.83,64.02c1.74,0,3.01-.23,3.81-.69.8-.46,1.2-1.54,1.2-3.23V16.88c0-1.69-.4-2.77-1.2-3.23-.8-.46-2.07-.69-3.81-.69v-.94h18.01v.94c-1.7,0-2.94.22-3.74.65s-1.22,1.45-1.27,3.05v20.55h22.3v-20.33c0-1.69-.41-2.77-1.23-3.23-.82-.46-2.11-.69-3.85-.69v-.94h18.08v.94c-1.74,0-3.01.23-3.81.69-.8.46-1.2,1.54-1.2,3.23v43.36c0,1.65.4,2.69,1.2,3.12.8.44,2.07.65,3.81.65v.94h-18.08v-.94c1.74,0,3.03-.23,3.85-.69.82-.46,1.23-1.54,1.23-3.23v-21.93h-22.3v22.66c.1,1.4.56,2.29,1.38,2.65.82.36,2.03.54,3.63.54v.94h-18.01v-.94Z"/>
  <path d="M344.47,32s-3.07-.86,1.77-1.59l5.17-13.47,2.02-5.41.47-1.22s.08-.24.23-.38c0,0,.11-.13.48-.08l.32.03s4.43.63,8.82,1.92c0,0,.72.21.88.28s.32.12.37.28c0,0,.02.14.01.3s-.08,1.75-.08,1.75l-1.05,14.34-.13,2.31s0,.14.04.16c0,0,0,0,.08.04,0,0,.04.03.05.04s.03.04.04.05.06.08.06.08c0,0,.07.13.11.23s.04.2.04.26c0,0-.03.04-.04.05s-.04.05-.04.05-.05.36-.05.36c0,0-.09,1.1-.07,1.29s-3.34,30.01-3.34,30.01c0,0-7.27,3.24-14.28-.41l-1.88-31.26Z"/>
  <polyline class="cls-1" points="122.86 65.02 129.41 65.02 122.86 56.03"/>
  <path class="cls-1" d="M90.47,12.03l31.45,42.95-.07-38.08c0-.97-.11-1.72-.33-2.25s-.53-.92-.95-1.16c-.41-.24-.93-.39-1.56-.44s-1.38-.07-2.25-.07v-.94h11.2v.94c-.82,0-1.55.02-2.18.07-.63.05-1.16.18-1.6.4s-.76.57-.98,1.05c-.22.49-.35,1.16-.4,2.04l.07,48.5h-1l-33.61-45.88v41c0,.97.11,1.72.33,2.25.22.53.55.92.98,1.16.44.24.97.39,1.6.44.63.05,1.38.07,2.25.07v.94h-11.27v-.94c.87,0,1.64-.02,2.29-.07.65-.05,1.19-.19,1.6-.44.41-.24.73-.63.94-1.16.22-.53.33-1.28.33-2.25V16.76c-.87-1.45-1.93-2.45-3.16-2.98-1.24-.53-2.68-.8-4.33-.8v-.94"/>
  <polygon class="cls-1" points="141.01 12.8 122.81 34.56 122.81 34.56 121.88 34.55 121.88 34.55 104.07 12.79 103.66 12.03 141.36 12.03 141.01 12.8"/>
  <polygon class="cls-1" points="131.19 11.16 136.76 3.04 135.5 3.16 129.72 11.13 131.19 11.16"/>
  <path class="cls-1" d="M112.41,11.34h4.59s.47-.84.18-1.72-.97-1.29-1.57-1.47-1.18-.13-1.42-.09-.53.09-.85.21-.66.32-.95.71-.34.65-.39.79-.17.63-.03,1.1.35.48.44.48Z"/>
  <path class="cls-1" d="M118.48,11.34h5.46s.39-2.63-2.73-2.81c0,0-3.03-.05-2.73,2.81Z"/>
  <path class="cls-1" d="M829.8,12.02l3.85,11.48h-.94c-.68-2.08-1.41-3.79-2.18-5.12-.78-1.33-1.68-2.4-2.72-3.2-1.04-.8-2.3-1.36-3.78-1.67-1.48-.31-3.23-.47-5.27-.47-2.61,0-4.78.04-6.5.11-1.72.07-3.1.24-4.14.51-1.04.27-1.77.65-2.18,1.16-.41.51-.62,1.2-.62,2.07v19.83h8.35c1.99,0,3.53-.24,4.65-.73,1.11-.48,1.94-1.19,2.47-2.11.53-.92.87-2.07,1.02-3.45.15-1.38.22-2.99.22-4.83h.94v24.04h-.94c0-1.84-.05-3.5-.15-4.98-.1-1.48-.4-2.74-.91-3.78-.51-1.04-1.33-1.84-2.47-2.4-1.14-.56-2.75-.84-4.83-.84h-8.35v22.44c0,.82.16,1.49.47,2,.31.51.85.91,1.6,1.2.75.29,1.75.48,3.01.58,1.26.1,2.81.15,4.65.15,3.1,0,5.76-.52,7.99-1.56,2.23-1.04,4.14-2.46,5.74-4.25,1.6-1.79,2.95-3.9,4.07-6.32,1.11-2.42,2.08-5.01,2.91-7.77h.94l-5.16,20.85h-34.28V12.02"/>
  <path class="cls-1" d="M795.33,12.02s-.25.06-.25.26v.76s-.39-.01-.39.25v.97s-.04.17.29.17l-.24,9.68s-.01,1.4-.74,2.62-1.71,2.55-1.71,2.55c0,0-.91,1.38-1.22,3,0,0-.14.96-.14,1.53,0,.57,0,29.82,0,29.82,0,0,.05,1.13,1.29,1.26,1.25.13,5.09.08,5.09.08l-.02-52.94"/>
  <path class="cls-3" d="M797.3,33.19s0,1.66,1.38,1.74c1.02.06,1.28-.95,1.34-1.46.02-.16.02-.29.02-.29h2.46c.18,0,.32.15.32.33l.06,29.35s-.02.66-.03.7c-.08.23-.4.72-1.12.72l-4.42.02"/>
  <path class="cls-3" d="M797.3,33.19h-2.89s-2.11,0-2.11,0c-.5,0-.65.23-.65.49v29.68s.19.92,1.62.92l5.08.03"/>
  <circle class="cls-1" cx="800.46" cy="35.67" r=".81"/>
  <circle class="cls-1" cx="798.66" cy="36.6" r=".61"/>
  <path class="cls-3" d="M792.17,32.21h10.16c.23,0,.39-.22.33-.44-.18-.61-.63-1.54-1.14-2.38-.45-.74-1.86-3.53-1.86-3.53,0,0-.29-.5-.38-1.76l-.28-9.1c0-.19-.16-.34-.34-.34h-2.74c-.19,0-.34.15-.34.34l-.19,9.1s-.02.93-.27,1.76c-.13.42-.32.93-2.11,3.48,0,0-.68.93-1.15,2.43-.07.22.1.45.33.45Z"/>
  <rect class="cls-3" x="840.58" y="14.27" width="4.29" height=".82" rx=".18" ry=".18"/>
  <rect class="cls-3" x="840.92" y="13.2" width="3.61" height=".7" rx=".18" ry=".18"/>
  <g>
    <path d="M538.68,12.74c-.04-.39.03-.55.64-.64h.09c.98-.11,2.95-.13,3.74.09.49.14.56.41.6.78"/>
    <path d="M561.52,65.09c-4.2.05-10.85.26-14.12-1.75-1.08-.67-1.83-4.37-2.02-5.38-1.59-8.58-4.71-40.64-5.15-45.22-.04-.39.03-.55.64-.64h.09c.98-.11,2.95-.13,3.74.09.49.14.56.41.6.78.46,5.02,3.02,34.81,3.38,38.39.25.74.79.5,2.06.59,2.07,0,8.03,0,10.78,0"/>
  </g>
  <g>
    <path d="M584,12.74c.04-.39-.03-.55-.64-.64h-.09c-.98-.11-2.95-.13-3.74.09-.49.14-.56.41-.6.78"/>
    <path d="M561.16,65.09c4.2.05,10.85.26,14.12-1.75,1.08-.67,1.83-4.37,2.02-5.38,1.59-8.58,4.71-40.64,5.15-45.22.04-.39-.03-.55-.64-.64h-.09c-.98-.11-2.95-.13-3.74.09-.49.14-.56.41-.6.78-.46,5.02-3.02,34.81-3.38,38.39-.25.74-.79.5-2.06.59-2.07,0-8.03,0-10.78,0"/>
  </g>
  <path class="cls-1" d="M545,13.71c2.69,0,2.69,1.29,5.39,1.29s2.69-1.29,5.39-1.29,2.69,1.29,5.38,1.29,2.69-1.29,5.39-1.29,2.7,1.29,5.39,1.29,2.7-1.29,5.39-1.29"/>
  <rect class="cls-3" x="795.16" y="13.33" width="4.29" height=".82" rx=".18" ry=".18"/>
  <rect class="cls-3" x="795.5" y="12.37" width="3.61" height=".7" rx=".18" ry=".18"/>
</svg>