<?xml version="1.0" encoding="UTF-8"?>
<svg id="Wine_Bottle" data-name="Wine Bottle" xmlns="http://www.w3.org/2000/svg" viewBox="0 0 1000 1000">
  <defs>
    <style>
      .cls-1, .cls-2, .cls-3 {
        fill: #231f20;
      }

      .cls-4 {
        fill: #fff;
      }

      .cls-2 {
        letter-spacing: .1em;
      }

      .cls-2, .cls-3 {
        font-family: Maharlika-Regular, Maharlika;
        font-size: 72px;
      }

      .cls-3 {
        letter-spacing: .1em;
      }
    </style>
  </defs>
  <text class="cls-3" transform="translate(70.41 520.57)"><tspan x="0" y="0" xml:space="preserve">A  </tspan></text>
  <text class="cls-2" transform="translate(222.41 520.72)"><tspan x="0" y="0">CHO </tspan></text>
  <text class="cls-2" transform="translate(464.14 521.59)"><tspan x="0" y="0" xml:space="preserve">DIE  </tspan></text>
  <text class="cls-2" transform="translate(699.33 521.08)"><tspan x="0" y="0" xml:space="preserve">NGH  </tspan></text>
  <path d="M406.75,488.59s-3.07-.86,1.77-1.59l5.17-13.47,2.02-5.41.47-1.22s.08-.24.23-.38c0,0,.11-.13.48-.08l.32.03s4.43.63,8.82,1.92c0,0,.72.21.88.28s.32.12.37.28c0,0,.02.14.01.3s-.08,1.75-.08,1.75l-1.05,14.34-.13,2.31s0,.14.04.16c0,0,0,0,.08.04,0,0,.04.03.05.04s.03.04.04.05.06.08.06.08c0,0,.07.13.11.23s.04.2.04.26c0,0-.03.04-.04.05s-.04.05-.04.05-.05.36-.05.36c0,0-.09,1.1-.07,1.29s-3.34,30.01-3.34,30.01c0,0-7.27,3.24-14.28-.41l-1.88-31.26Z"/>
  <g>
    <polygon class="cls-1" points="173.19 520.72 179.66 511.4 179.66 514.91 180.07 514.91 180.07 520.72 173.19 520.72"/>
    <polygon class="cls-1" points="187.39 520.72 180.6 511.4 180.59 514.91 180.07 514.91 180.07 520.72 187.39 520.72"/>
  </g>
  <path class="cls-1" d="M148.52,468.08l31.14,42.53-.07-37.71c0-.96-.11-1.7-.32-2.23s-.53-.91-.94-1.15c-.41-.24-.92-.38-1.55-.43s-1.37-.07-2.23-.07v-.94h11.09v.94c-.82,0-1.54.02-2.16.07-.62.05-1.15.18-1.58.4s-.76.57-.97,1.04c-.22.48-.35,1.15-.4,2.02l.07,48.02h-.99l-33.29-45.43v40.6c0,.96.11,1.71.32,2.23.22.53.54.91.97,1.15.43.24.96.38,1.58.43.62.05,1.37.07,2.23.07v.94h-11.16v-.94c.86,0,1.62-.02,2.27-.07.65-.05,1.18-.19,1.58-.43.41-.24.72-.62.94-1.15.22-.53.32-1.27.32-2.23v-42.98c-.86-1.44-1.91-2.42-3.13-2.95-1.22-.53-2.65-.79-4.28-.79v-.94"/>
  <polygon class="cls-1" points="198.57 468.74 180.54 490.29 180.54 490.29 179.62 490.29 179.62 490.29 161.99 468.74 161.58 467.99 198.91 467.99 198.57 468.74"/>
  <polygon class="cls-1" points="188.84 467.21 194.36 459.18 193.12 459.3 187.39 467.19 188.84 467.21"/>
  <path class="cls-1" d="M170.24,467.4h4.55s.47-.83.18-1.7-.96-1.28-1.55-1.46-1.17-.13-1.41-.09-.53.09-.84.2-.65.32-.94.71-.34.64-.38.78-.16.62-.03,1.09.34.48.43.48Z"/>
  <path class="cls-1" d="M176.26,467.4h5.4s.38-2.61-2.7-2.78c0,0-3-.05-2.7,2.78Z"/>
  <g>
    <g>
      <path class="cls-1" d="M926.33,468.52l3.82,11.39h-.94c-.67-2.07-1.39-3.76-2.16-5.08-.77-1.32-1.67-2.38-2.7-3.17-1.03-.79-2.28-1.34-3.75-1.66-1.47-.31-3.21-.47-5.23-.47-2.59,0-4.75.04-6.45.11-1.71.07-3.08.24-4.11.5-1.03.26-1.75.65-2.16,1.15-.41.5-.61,1.19-.61,2.05v19.68h8.29c1.97,0,3.51-.24,4.61-.72,1.1-.48,1.92-1.18,2.45-2.09.53-.91.86-2.05,1.01-3.42.14-1.37.22-2.97.22-4.79h.94v23.86h-.94c0-1.83-.05-3.47-.14-4.94-.1-1.47-.4-2.71-.9-3.75-.5-1.03-1.32-1.83-2.45-2.38-1.13-.55-2.73-.83-4.79-.83h-8.29v22.28c0,.82.16,1.48.47,1.98.31.5.84.9,1.59,1.19.74.29,1.74.48,2.99.58,1.25.1,2.79.14,4.61.14,3.08,0,5.72-.52,7.93-1.55,2.21-1.03,4.11-2.44,5.69-4.22,1.59-1.78,2.93-3.87,4.04-6.27,1.11-2.4,2.07-4.97,2.88-7.71h.94l-5.12,20.69h-34.03v-52.55"/>
      <g>
        <path class="cls-1" d="M895.87,468.52s.09-.03.25.26v.75s.41.02.39.25,0,.96,0,.96c0,0,.04.17-.28.17l.24,9.61s.01,1.39.74,2.6,1.7,2.53,1.7,2.53c0,0,.91,1.37,1.21,2.98,0,0,.14.96.14,1.52v29.6s-.05,1.12-1.28,1.25c-1.24.13-5.05.08-5.05.08l.02-52.54h1.94Z"/>
        <path class="cls-1" d="M892.19,468.52s-.09-.03-.25.26v.75s-.41.02-.39.25,0,.96,0,.96c0,0-.04.17.28.17l-.24,9.61s-.01,1.39-.74,2.6c-.72,1.21-1.7,2.53-1.7,2.53,0,0-.91,1.37-1.21,2.98,0,0-.14.96-.14,1.52,0,.56,0,29.6,0,29.6,0,0,.05,1.12,1.28,1.25,1.24.13,5.05.08,5.05.08l-.02-52.54"/>
        <path class="cls-4" d="M894.08,489.33s0,1.67,1.37,1.75c1.02.06,1.27-.95,1.33-1.46.02-.17.02-.29.02-.29h2.45c.17,0,.31.15.32.33l.06,29.5s-.02.67-.03.7c-.08.23-.4.72-1.11.72l-4.23.02-.32-.63.06-30.64"/>
        <path class="cls-4" d="M891.13,489.33h-2.09c-.49,0-.64.23-.64.49v29.84s.19.93,1.61.93l3.56.02h.68s-.26-31.28-.26-31.28h-2.87Z"/>
        <circle class="cls-1" cx="897.21" cy="491.99" r=".8"/>
        <circle class="cls-1" cx="895.42" cy="492.92" r=".61"/>
        <path class="cls-4" d="M888.98,488.55h10.08c.23,0,.39-.22.33-.44-.18-.61-.45-1.7-1.01-2.36s-2.08-3.43-2.08-3.43c0,0-.25-.38-.34-1.63l-.2-9.22c0-.19-.15-.34-.34-.34h-2.72c-.18,0-.33.15-.34.33l-.09,9.03s-.09.96-.33,1.79c-.12.42-.53.99-2.2,3.41,0,0-.61.92-1.07,2.4-.07.22.1.44.33.44Z"/>
      </g>
    </g>
    <rect class="cls-4" x="891.89" y="469.81" width="4.29" height=".82" rx=".18" ry=".18"/>
  </g>
  <g>
    <path d="M658.05,469.39c.04-.4-.03-.56-.64-.64h-.09c-.98-.11-2.96-.13-3.75.09-.49.14-.56.41-.6.78"/>
    <path d="M635.14,521.91c4.21.05,10.89.26,14.16-1.76,1.08-.67,1.83-4.38,2.03-5.39,1.59-8.6,4.73-40.76,5.17-45.36.04-.4-.03-.56-.64-.64h-.09c-.98-.11-2.96-.13-3.75.09-.49.14-.56.41-.6.78-.46,5.03-3.03,34.92-3.39,38.51-.25.74-.79.5-2.07.59-2.07,0-8.06,0-10.81,0"/>
    <path d="M612.24,469.39c-.04-.4.03-.56.64-.64h.09c.98-.11,2.96-.13,3.75.09.49.14.56.41.6.78"/>
    <path d="M635.14,521.91c-4.21.05-10.89.26-14.16-1.76-1.08-.67-1.83-4.38-2.03-5.39-1.59-8.6-4.73-40.76-5.17-45.36-.04-.4.03-.56.64-.64h.09c.98-.11,2.96-.13,3.75.09.49.14.56.41.6.78.46,5.03,3.03,34.92,3.39,38.51.25.74.79.5,2.07.59,2.07,0,8.06,0,10.81,0"/>
    <path class="cls-1" d="M618.92,470.36c2.7,0,2.7,1.3,5.4,1.3s2.7-1.3,5.4-1.3,2.7,1.3,5.4,1.3,2.7-1.3,5.41-1.3,2.7,1.3,5.41,1.3,2.7-1.3,5.41-1.3"/>
  </g>
</svg>