<?xml version="1.0" encoding="UTF-8"?>
<svg id="Logo_Combination_Mark_Final-short_" data-name="Logo Combination Mark (Final-short)" xmlns="http://www.w3.org/2000/svg" viewBox="0 0 763.74 62.43">
  <defs>
    <style>
      .cls-1 {
        fill: #231f20;
      }

      .cls-2 {
        fill: #fff;
      }
    </style>
  </defs>
  <g>
    <path class="cls-1" d="M173.31,62.13c-3.58,0-6.86-.63-9.86-1.88s-5.57-3-7.73-5.22c-2.16-2.23-3.83-4.89-5.02-7.98-1.18-3.09-1.78-6.44-1.78-10.07s.56-7.3,1.67-10.62c1.12-3.32,2.73-6.21,4.84-8.67,2.11-2.46,4.7-4.4,7.77-5.82,3.07-1.42,6.53-2.12,10.38-2.12,1.67,0,3.12.16,4.35.49,1.23.33,2.32.67,3.28,1.05.95.37,1.78.72,2.47,1.04.7.33,1.32.49,1.88.49.42,0,.84-.15,1.25-.45.42-.3.63-.92.63-1.85h.91v17.49h-.84c0-5.85-1.18-10.08-3.55-12.68-2.37-2.6-5.62-3.9-9.75-3.9-2.32,0-4.52.48-6.58,1.43-2.07.95-3.87,2.36-5.4,4.22-1.53,1.86-2.74,4.18-3.62,6.97-.88,2.79-1.32,5.99-1.32,9.61s.44,6.96,1.32,10c.88,3.04,2.15,5.66,3.8,7.84,1.65,2.18,3.67,3.88,6.06,5.09,2.39,1.21,5.1,1.81,8.12,1.81,2.51,0,4.68-.43,6.51-1.29,1.83-.86,3.34-2.02,4.53-3.48,1.18-1.46,2.07-3.15,2.65-5.05.58-1.9.87-3.88.87-5.92h.91c0,2.42-.36,4.8-1.08,7.14-.72,2.35-1.85,4.44-3.38,6.27-1.53,1.84-3.47,3.31-5.82,4.42-2.35,1.11-5.17,1.67-8.47,1.67Z"/>
    <path class="cls-1" d="M197.04,61.29c1.72,0,2.97-.23,3.76-.68.79-.46,1.18-1.52,1.18-3.2V14.56c0-1.68-.39-2.75-1.18-3.2-.79-.46-2.04-.68-3.76-.68v-.94h17.77v.94c-1.67,0-2.9.22-3.69.65-.79.43-1.21,1.44-1.25,3.02v20.38h22V14.56c0-1.68-.41-2.75-1.22-3.2-.81-.46-2.08-.68-3.8-.68v-.94h17.84v.94c-1.72,0-2.97.23-3.76.68-.79.46-1.18,1.52-1.18,3.2v42.99c0,1.63.39,2.66,1.18,3.1.79.43,2.04.65,3.76.65v.94h-17.84v-.94c1.72,0,2.98-.23,3.8-.68.81-.46,1.22-1.52,1.22-3.2v-21.74h-22v22.46c.1,1.39.55,2.27,1.36,2.63.81.36,2.01.54,3.58.54v.94h-17.77v-.94Z"/>
    <path class="cls-1" d="M249.68,35.84c0-3.63.65-7.02,1.95-10.19,1.3-3.16,3.08-5.93,5.34-8.31,2.26-2.37,4.91-4.23,7.96-5.58,3.05-1.35,6.29-2.02,9.74-2.02s6.7.67,9.77,2.02c3.07,1.35,5.75,3.21,8.03,5.58,2.28,2.37,4.08,5.14,5.41,8.31,1.33,3.16,1.99,6.56,1.99,10.19s-.66,7.05-1.99,10.26c-1.33,3.21-3.13,6.01-5.41,8.41-2.28,2.4-4.95,4.28-8.03,5.65-3.07,1.37-6.33,2.06-9.77,2.06s-6.69-.69-9.74-2.06c-3.05-1.37-5.7-3.26-7.96-5.65-2.26-2.4-4.04-5.2-5.34-8.41-1.3-3.21-1.95-6.63-1.95-10.26ZM273.97,10.71c-2.65,0-4.97.66-6.94,1.99-1.98,1.33-3.63,3.11-4.96,5.34s-2.33,4.83-3,7.78c-.68,2.96-1.01,6.04-1.01,9.25s.34,6.61,1.01,9.77c.67,3.16,1.71,5.96,3.1,8.37,1.4,2.42,3.19,4.36,5.38,5.83,2.19,1.47,4.79,2.2,7.82,2.2,2.79,0,5.2-.65,7.22-1.95,2.02-1.3,3.7-3.08,5.02-5.34,1.33-2.26,2.3-4.87,2.93-7.85.63-2.98.94-6.14.94-9.49s-.33-6.43-.98-9.53c-.65-3.09-1.69-5.85-3.11-8.27-1.42-2.42-3.23-4.37-5.44-5.86-2.21-1.49-4.87-2.23-7.99-2.23Z"/>
    <path d="M305.76,30.83s-2.92-.82,1.69-1.52l4.92-12.82,1.92-5.15.45-1.16s.08-.23.22-.36c0,0,.1-.12.46-.08l.3.03s4.21.6,8.39,1.83c0,0,.69.2.83.27s.3.12.35.27c0,0,.02.14.01.28s-.07,1.67-.07,1.67l-1,13.65-.12,2.19s0,.13.04.15c0,0,0,0,.07.03,0,0,.04.03.05.04s.03.04.04.05.06.07.06.07c0,0,.07.12.11.22s.04.19.04.25c0,0-.03.04-.04.05s-.04.04-.04.05-.05.35-.05.35c0,0-.08,1.04-.07,1.22s-3.18,28.55-3.18,28.55c0,0-6.92,3.08-13.59-.39l-1.79-29.74Z"/>
  </g>
  <g>
    <path class="cls-1" d="M355.21,61.29c1.73,0,2.99-.23,3.79-.68.79-.46,1.19-1.52,1.19-3.2V14.56c0-1.68-.4-2.75-1.19-3.2-.79-.46-2.06-.68-3.79-.68v-.94h23.51c1.59,0,3.37.1,5.34.29,1.97.19,3.97.59,5.99,1.19,2.02.6,3.99,1.46,5.91,2.59,1.92,1.13,3.63,2.64,5.12,4.54,1.49,1.9,2.69,4.22,3.61,6.98.91,2.76,1.37,6.08,1.37,9.97,0,3.5-.49,6.89-1.48,10.15-.99,3.26-2.61,6.13-4.87,8.6-2.26,2.47-5.26,4.45-9.01,5.94-3.75,1.49-8.37,2.23-13.85,2.23h-21.64v-.94ZM376.19,61.29c4.52,0,8.21-.79,11.07-2.38,2.86-1.58,5.1-3.61,6.71-6.08,1.61-2.47,2.72-5.26,3.32-8.35.6-3.1.9-6.16.9-9.18,0-4.13-.53-7.73-1.59-10.8-1.06-3.07-2.51-5.63-4.36-7.67-1.85-2.04-4.04-3.58-6.56-4.61-2.52-1.03-5.28-1.55-8.26-1.55-3.42,0-5.82.23-7.21.68-1.39.46-2.09,1.5-2.09,3.13v42.91c0,1.63.61,2.69,1.84,3.17,1.23.48,3.3.72,6.24.72Z"/>
    <path class="cls-1" d="M415.77,57.35V14.55c0-1.68-.4-2.74-1.19-3.2-.79-.45-2.05-.68-3.78-.68v-.93h17.91v.93c-1.73,0-3,.23-3.81.68-.82.46-1.22,1.52-1.22,3.2v42.8c0,1.68.41,2.75,1.22,3.2.82.46,2.06.68,3.74.68l.07.93h-17.91v-.93c1.73,0,2.99-.23,3.78-.68.79-.45,1.19-1.52,1.19-3.2Z"/>
    <path class="cls-1" d="M433.71,61.24c1.58,0,2.78-.19,3.6-.58.82-.38,1.3-1.25,1.44-2.59l-.07-43.52c0-1.68-.4-2.74-1.19-3.2-.79-.45-2.05-.68-3.78-.68v-.93h37.19l3.81,11.36h-.93c-.67-2.06-1.39-3.75-2.16-5.07-.77-1.32-1.67-2.37-2.7-3.17-1.03-.79-2.28-1.34-3.74-1.65-1.46-.31-3.2-.47-5.22-.47-2.59,0-4.74.04-6.44.11-1.7.07-3.07.24-4.1.5-1.03.26-1.75.65-2.16,1.15-.41.5-.61,1.19-.61,2.05v19.64h8.27c1.97,0,3.5-.24,4.6-.72,1.1-.48,1.92-1.17,2.45-2.09.53-.91.86-2.05,1.01-3.42.14-1.37.22-2.96.22-4.78h.93v23.81h-.93c0-1.82-.05-3.46-.14-4.93-.1-1.46-.4-2.71-.9-3.74s-1.32-1.82-2.45-2.37c-1.13-.55-2.72-.83-4.78-.83h-8.27v22.23c0,.82.16,1.47.47,1.98s.84.9,1.58,1.19c.74.29,1.74.48,2.99.58,1.25.1,2.78.14,4.6.14,3.07,0,5.71-.52,7.91-1.55,2.21-1.03,4.1-2.43,5.68-4.21,1.58-1.77,2.92-3.86,4.03-6.26,1.1-2.4,2.06-4.96,2.88-7.7h.93l-5.11,20.64h-38.91v-.93Z"/>
    <g>
      <g>
        <path d="M482.74,10.45c-.04-.39.03-.55.63-.63h.09c.97-.11,2.91-.13,3.69.09.48.14.55.4.59.77"/>
        <path d="M505.29,62.14c-4.15.05-10.72.26-13.94-1.73-1.06-.66-1.8-4.32-2-5.31-1.57-8.47-4.65-40.12-5.09-44.65-.04-.39.03-.55.63-.63h.09c.97-.11,2.91-.13,3.69.09.48.14.55.4.59.77.45,4.96,2.98,34.37,3.34,37.9.25.73.78.49,2.03.58,2.04,0,7.93,0,10.64,0"/>
      </g>
      <g>
        <path d="M527.48,10.45c.04-.39-.03-.55-.63-.63h-.09c-.97-.11-2.91-.13-3.69.09-.48.14-.55.4-.59.77"/>
        <path d="M504.94,62.14c4.15.05,10.72.26,13.94-1.73,1.06-.66,1.8-4.32,2-5.31,1.57-8.47,4.65-40.12,5.09-44.65.04-.39-.03-.55-.63-.63h-.09c-.97-.11-2.91-.13-3.69.09-.48.14-.55.4-.59.77-.45,4.96-2.98,34.37-3.34,37.9-.25.73-.78.49-2.03.58-2.04,0-7.93,0-10.64,0"/>
      </g>
      <path class="cls-1" d="M488.98,11.4c2.66,0,2.66,1.28,5.32,1.28s2.66-1.28,5.32-1.28,2.66,1.28,5.32,1.28,2.66-1.28,5.32-1.28,2.66,1.28,5.32,1.28,2.66-1.28,5.32-1.28"/>
    </g>
  </g>
  <path class="cls-1" d="M564.66,9.74h6.55l27.86,38.88-.07-34.06c0-.96-.11-1.7-.32-2.23-.22-.53-.53-.91-.94-1.15s-.92-.38-1.55-.43c-.63-.05-1.37-.07-2.23-.07v-.94h11.09v.94c-.82,0-1.54.02-2.16.07-.62.05-1.15.18-1.58.4s-.76.56-.97,1.04c-.22.48-.35,1.15-.4,2.02l.07,48.02h-.94l-33.34-46.51v41.69c0,.96.11,1.7.32,2.23.22.53.54.91.97,1.15.43.24.96.38,1.58.43.62.05,1.37.07,2.23.07v.94h-11.16v-.94c.86,0,1.62-.02,2.27-.07s1.18-.19,1.58-.43c.41-.24.72-.62.94-1.15.22-.53.32-1.27.32-2.23V14.42c-.86-1.44-1.91-2.42-3.13-2.95-1.22-.53-2.65-.79-4.28-.79v-.94h7.27Z"/>
  <path class="cls-1" d="M633,62.22c-2.98,0-5.84-.51-8.58-1.54-2.75-1.02-5.19-2.57-7.33-4.64-2.14-2.07-3.85-4.68-5.13-7.82-1.28-3.14-1.92-6.85-1.92-11.13s.65-8.26,1.95-11.66c1.3-3.4,3.08-6.26,5.34-8.59,2.26-2.33,4.91-4.09,7.96-5.3,3.05-1.21,6.29-1.81,9.74-1.81,2.19,0,4.01.19,5.48.56,1.47.37,2.73.77,3.8,1.19,1.07.42,2.02.82,2.86,1.19.84.37,1.7.56,2.58.56.93,0,1.62-.25,2.06-.77.44-.51.66-1.16.66-1.95h.91l1.05,15.63h-.84c-1.07-4.56-3.15-8.15-6.25-10.78-3.1-2.63-6.99-3.94-11.69-3.94-5.63,0-9.91,1.91-12.84,5.72-2.93,3.82-4.4,9.24-4.4,16.26,0,1.81.15,3.71.45,5.69s.77,3.92,1.4,5.83c.63,1.91,1.44,3.71,2.44,5.41,1,1.7,2.19,3.2,3.56,4.5,1.37,1.3,2.95,2.34,4.75,3.11,1.79.77,3.8,1.15,6.04,1.15,2.05,0,3.75-.24,5.1-.73,1.35-.49,2.43-1.21,3.25-2.16.81-.95,1.4-2.14,1.74-3.56.35-1.42.52-3.06.52-4.92v-9.07c0-1.35-.38-2.22-1.15-2.62-.77-.39-2.25-.59-4.43-.59v-.91h18.15v.91c-1.35,0-2.5.2-3.45.59-.95.4-1.43,1.27-1.43,2.62l.07,22.76h-.98c0-2.61-.18-4.42-.52-5.44-.35-1.02-1.13-1.54-2.34-1.54-.79,0-1.55.23-2.27.7-.72.47-1.73,1.28-3.04,2.44-1.12.98-2.19,1.77-3.21,2.37-1.02.61-2.07,1.08-3.14,1.43-1.07.35-2.16.58-3.28.7-1.12.12-2.33.17-3.63.17Z"/>
  <path class="cls-1" d="M665.26,61.29c1.73,0,2.99-.23,3.78-.68.79-.46,1.19-1.52,1.19-3.2V14.56c0-1.68-.4-2.75-1.19-3.2-.79-.46-2.05-.68-3.78-.68v-.94h17.86v.94c-1.68,0-2.92.22-3.71.65s-1.21,1.44-1.26,3.02v20.38h22.1V14.56c0-1.68-.41-2.75-1.22-3.2-.82-.46-2.09-.68-3.82-.68v-.94h17.93v.94c-1.73,0-2.99.23-3.78.68-.79.46-1.19,1.52-1.19,3.2v42.98c0,1.63.4,2.66,1.19,3.1.79.43,2.05.65,3.78.65v.94h-17.93v-.94c1.73,0,3-.23,3.82-.68.82-.46,1.22-1.52,1.22-3.2v-21.74h-22.1v22.46c.1,1.39.55,2.27,1.37,2.63.81.36,2.02.54,3.6.54v.94h-17.86v-.94Z"/>
  <path class="cls-1" d="M756.63,9.72l3.82,11.38h-.94c-.67-2.06-1.39-3.76-2.16-5.08-.77-1.32-1.67-2.38-2.7-3.17-1.03-.79-2.28-1.34-3.74-1.66-1.47-.31-3.2-.47-5.22-.47-2.59,0-4.74.04-6.44.11-1.7.07-3.07.24-4.1.5-1.03.26-1.75.65-2.16,1.15-.41.5-.61,1.19-.61,2.05v19.66h8.28c1.97,0,3.5-.24,4.61-.72,1.1-.48,1.92-1.18,2.45-2.09.53-.91.86-2.05,1.01-3.42.14-1.37.22-2.96.22-4.79h.94v23.84h-.94c0-1.82-.05-3.47-.14-4.93-.1-1.46-.4-2.71-.9-3.74-.5-1.03-1.32-1.82-2.45-2.38-1.13-.55-2.73-.83-4.79-.83h-8.28v22.25c0,.82.16,1.48.47,1.98.31.5.84.9,1.58,1.19.74.29,1.74.48,2.99.58,1.25.1,2.78.14,4.61.14,3.07,0,5.71-.52,7.92-1.55,2.21-1.03,4.1-2.44,5.69-4.21,1.58-1.78,2.93-3.86,4.03-6.27,1.1-2.4,2.06-4.97,2.88-7.71h.94l-5.11,20.67h-33.99V9.72"/>
  <path class="cls-1" d="M722.6,9.73s-.25.06-.25.26v.75s-.39-.01-.39.24v.96s-.04.17.28.17l-.24,9.6s-.01,1.39-.73,2.59c-.72,1.21-1.7,2.52-1.7,2.52,0,0-.91,1.37-1.21,2.97,0,0-.14.96-.14,1.52,0,.56,0,29.57,0,29.57,0,0,.05,1.12,1.28,1.25,1.24.13,5.07.09,5.07.09l-.04-52.5h-1.94Z"/>
  <g>
    <path class="cls-2" d="M724.56,30.59s0,1.65,1.36,1.73c1.02.06,1.27-.94,1.33-1.44.02-.16.02-.28.02-.28h2.44c.17,0,.31.15.31.33l.06,29.1s-.02.66-.03.69c-.08.23-.4.71-1.11.71h-4.37"/>
    <path class="cls-2" d="M724.56,30.59h-2.86s-2.09,0-2.09,0c-.49,0-.64.23-.64.48v29.43s.19.92,1.61.92h5.41l-1.43-30.84Z"/>
    <circle class="cls-1" cx="727.69" cy="33.18" r=".8"/>
    <circle class="cls-1" cx="725.9" cy="34.1" r=".61"/>
    <path class="cls-2" d="M719.47,29.74h10.07c.23,0,.39-.22.33-.44-.18-.61-.63-1.52-1.13-2.36-.44-.74-1.84-3.5-1.84-3.5,0,0-.29-.5-.37-1.74l-.28-9.02c0-.19-.15-.34-.34-.34h-2.72c-.18,0-.33.15-.34.33l-.19,9.02s-.02.92-.27,1.74c-.13.42-.32.92-2.09,3.45,0,0-.68.92-1.14,2.41-.07.22.1.44.33.44Z"/>
    <rect class="cls-2" x="722.25" y="11.03" width="4.62" height=".81" rx=".18" ry=".18"/>
    <path class="cls-2" d="M726.01,10.77h-3.06c-.26,0-.34-.08-.34-.18v-.34c0-.1.08-.18.18-.18h3.22c.1,0,.18.08.18.18v.34c0,.1-.08.18-.18.18Z"/>
  </g>
  <path class="cls-1" d="M.22,62.22v-.94c1.2,0,2.41-.43,3.64-1.3s2.1-1.94,2.63-3.24l15.7-37.58-2.02-4.9c-.58-1.44-1.46-2.4-2.66-2.88-1.2-.48-2.52-.72-3.96-.72v-.94h12.6l18.94,45.22c1.01,2.4,2.11,4.06,3.31,4.97,1.2.91,2.71,1.37,4.54,1.37v.94h-20.23v-.94h1.94c1.87,0,2.94-.61,3.2-1.84.26-1.22.04-2.7-.68-4.43l-4.1-10.01H12.32l-4.75,11.45c-.34.77-.46,1.45-.36,2.05.1.6.32,1.1.68,1.51.36.41.85.72,1.48.94.62.22,1.32.32,2.09.32v.94H.22ZM12.75,44.08h19.87l-9.94-23.83-9.94,23.83Z"/>
  <path class="cls-1" d="M68.44,9.75l31.13,42.52-.07-37.7c0-.96-.11-1.7-.32-2.23s-.53-.91-.94-1.15c-.41-.24-.92-.38-1.55-.43s-1.37-.07-2.23-.07v-.94h11.08v.94c-.82,0-1.54.02-2.16.07-.62.05-1.15.18-1.58.4s-.76.57-.97,1.04c-.22.48-.35,1.15-.4,2.02l.07,48.01h-.99l-33.28-45.41v40.59c0,.96.11,1.7.32,2.23.22.53.54.91.97,1.15.43.24.96.38,1.58.43.62.05,1.37.07,2.23.07v.94h-11.16v-.94c.86,0,1.62-.02,2.27-.07.65-.05,1.18-.19,1.58-.43.41-.24.72-.62.94-1.15.22-.53.32-1.27.32-2.23V14.43c-.86-1.44-1.91-2.42-3.13-2.95-1.22-.53-2.65-.79-4.28-.79v-.94"/>
  <polyline class="cls-1" points="100.31 62.22 106.88 62.22 100.31 53.21"/>
  <polygon class="cls-1" points="118.68 10.52 100.48 32.28 100.48 32.28 99.55 32.27 99.55 32.27 81.74 10.51 81.33 9.75 119.03 9.75 118.68 10.52"/>
  <g>
    <polygon class="cls-1" points="109.09 8.45 114.67 .33 113.41 .46 107.62 8.45 109.09 8.45"/>
    <path class="cls-1" d="M90.31,8.45h4.59s.47-.84.18-1.72c-.29-.88-.97-1.29-1.57-1.47s-1.18-.13-1.42-.09-.53.09-.85.21-.66.32-.95.71-.34.65-.39.79-.17.63-.03,1.1.35.48.44.48Z"/>
    <path class="cls-1" d="M96.39,8.45h5.46s.39-2.63-2.73-2.81c0,0-3.03-.05-2.73,2.81Z"/>
  </g>
</svg>