<?xml version="1.0" encoding="UTF-8"?>
<svg id="Logo" xmlns="http://www.w3.org/2000/svg" viewBox="0 0 1000 1000">
  <defs>
    <style>
      .cls-1 {
        fill: #6d6e71;
      }
    </style>
  </defs>
  <path class="cls-1" d="M513.01,339.63l8.26,20.15c3.44,8.26,4.53,15.31,3.27,21.16-1.26,5.85-6.36,8.77-15.31,8.77h-9.29v4.47h96.67v-4.47c-8.72,0-15.94-2.18-21.67-6.54-5.73-4.35-11.01-12.27-15.82-23.74l-15.58-37.21c-2.81.88-5.57,1.9-8.3,3.07-8.2,3.52-15.61,8.3-22.22,14.33Z"/>
  <path class="cls-1" d="M539.39,312.34l-70.75-168.94h-60.2v4.47c6.88,0,13.19,1.15,18.92,3.44,5.73,2.3,9.98,6.88,12.73,13.76l9.63,23.39-74.99,179.57c-2.53,6.19-6.71,11.35-12.56,15.48-5.85,4.13-11.64,6.19-17.37,6.19v4.47h53.66v-4.47c-3.67,0-7-.52-9.98-1.55-2.98-1.03-5.33-2.52-7.05-4.47-1.72-1.95-2.81-4.35-3.27-7.22-.46-2.87.11-6.13,1.72-9.8l22.7-54.7h99.07l4.55,11.09c1.83-.89,3.69-1.75,5.59-2.57,8.6-3.71,17.81-6.4,27.59-8.14ZM404.66,307.5l47.47-113.87,47.47,113.87h-94.95Z"/>
  <path class="cls-1" d="M570.13,568.59c15.4-.47,28.75-3.17,40.01-8.16,12.42-5.5,22.7-12.78,30.81-21.84,8.12-9.06,14.08-19.38,17.9-30.96,3.81-11.58,5.72-23.33,5.72-35.26h-4.8c0,10.09-1.54,19.84-4.61,29.24-3.08,9.41-7.75,17.72-14.02,24.94-6.27,7.22-14.27,12.96-23.99,17.2-9.72,4.25-21.22,6.36-34.51,6.36-4,0-7.9-.19-11.69-.56,0,.66.03,1.3.03,1.97,0,5.76-.3,11.45-.86,17.07Z"/>
  <path class="cls-1" d="M445.56,494.21c6.27,15.25,15.13,28.38,26.57,39.39,11.44,11.01,25.09,19.61,40.96,25.8,6.4,2.5,13.05,4.46,19.95,5.95.29-4.63.45-9.24.45-13.83s-.15-9.36-.45-13.83c-9.81-5.6-18.33-12.79-25.49-21.64-8.74-10.78-15.44-23.68-20.11-38.7-3.18-10.21-5.25-21.09-6.26-32.63-2.39-1.25-4.84-2.42-7.37-3.46-11.44-4.69-23.89-7.12-37.3-7.35-.22,3.49-.36,7.01-.36,10.58,0,17.89,3.14,34.46,9.41,49.71Z"/>
  <path class="cls-1" d="M570.11,318.25c21.89,0,39.12,6.42,51.67,19.26,12.55,12.85,18.82,33.71,18.82,62.61h4.43v-86.34h-4.8c0,4.59-1.11,7.63-3.32,9.12-2.21,1.49-4.43,2.24-6.64,2.24-2.95,0-6.27-.8-9.96-2.41-3.69-1.6-8.06-3.32-13.1-5.16-5.05-1.83-10.83-3.55-17.34-5.16-6.52-1.6-14.21-2.41-23.07-2.41-9.6,0-18.72.8-27.39,2.35l4.14,9.89c8.47-2.65,17.33-3.98,26.57-3.98Z"/>
  <path class="cls-1" d="M466.07,430.78c4.79.47,9.6,1.19,14.45,2.17-.04-1.64-.08-3.29-.08-4.95,0-17.89,2.33-33.71,7.01-47.47,4.67-13.76,11.07-25.22,19.19-34.4,2.04-2.3,4.16-4.46,6.38-6.48l-6.8-16.58c-13.82,6.71-25.68,15.42-35.56,26.16-11.2,12.16-19.74,26.44-25.65,42.83-4.28,11.88-6.98,24.34-8.16,37.36h3.77c7.57,0,16.05.46,25.46,1.38Z"/>
  <path class="cls-1" d="M505.11,463.28c8.83,9.75,15.76,21.96,20.81,36.64,3.83,11.14,6.2,23.73,7.12,37.77,2.15,1.23,4.34,2.4,6.62,3.47,9.5,4.47,19.93,7.27,31.3,8.38-.15-17.72-2.31-32.96-6.51-45.67-4.36-13.18-10.1-24.31-17.2-33.37-7.11-9.06-15.26-16.28-24.42-21.67-9.17-5.39-18.58-9.51-28.21-12.38-4.73-1.41-9.43-2.57-14.11-3.51.1,4,.32,7.93.66,11.79,8.97,4.69,16.96,10.86,23.93,18.56Z"/>
  <path class="cls-1" d="M533.04,565.35c-.62,9.93-1.89,19.94-3.85,30.03-.37,1.92-.79,3.81-1.24,5.68l21.18,29.55c6.49-9.23,11.44-19.41,14.81-30.58,3.08-10.23,5.13-20.71,6.2-31.44-1.59.05-3.19.1-4.82.1-11.31,0-22.06-1.13-32.27-3.33Z"/>
  <path class="cls-1" d="M428.57,675.71c-13.99,0-23.91-1.15-29.76-3.44-5.85-2.29-8.77-7.34-8.77-15.14v-205.03c0-7.79,3.32-12.78,9.98-14.96,6.65-2.18,18.11-3.27,34.4-3.27.7,0,1.39.03,2.09.05.09-1.51.2-3.02.33-4.52h-108.38v4.47c8.26,0,14.28,1.09,18.06,3.27,3.78,2.18,5.68,7.28,5.68,15.31v204.68c0,8.03-1.89,13.13-5.68,15.31-3.78,2.18-9.8,3.27-18.06,3.27v4.47h103.2c18.18,0,34.32-1.76,48.51-5.2v-10.02c-13.48,7.15-30.66,10.75-51.6,10.75Z"/>
  <path class="cls-1" d="M484.65,662.42v11.42c4.57-1.26,8.94-2.69,13.07-4.33,8.84-3.51,16.8-7.6,23.9-12.26l-11.99-16.73c-6.58,8.55-14.91,15.84-24.98,21.9Z"/>
  <path class="cls-1" d="M619.49,577.12v4.47c4.13,0,7.68.12,10.66.34,2.98.23,5.45.92,7.4,2.06,1.95,1.15,3.44,2.98,4.47,5.5,1.03,2.53,1.55,6.08,1.55,10.66l.34,162.71-94.79-132.27c-2.57,3.65-5.35,7.17-8.41,10.52-5.46,5.98-11.83,11.35-19.1,16.12l122.3,170.64h4.47l-.34-229.45c.23-4.13.86-7.34,1.89-9.63,1.03-2.29,2.58-3.96,4.64-4.99,2.06-1.03,4.59-1.66,7.57-1.89,2.98-.23,6.42-.34,10.32-.34v-4.47h-52.98Z"/>
  <path class="cls-1" d="M480.17,804.84c0,4.59-.52,8.14-1.55,10.66-1.03,2.53-2.53,4.36-4.47,5.5-1.95,1.15-4.47,1.84-7.57,2.06-3.1.23-6.71.34-10.84.34v4.47h53.32v-4.47c-4.13,0-7.69-.11-10.66-.34-2.98-.23-5.5-.91-7.57-2.06-2.06-1.15-3.61-2.98-4.64-5.5-1.03-2.52-1.55-6.07-1.55-10.66v-131c-1.46.4-2.97.77-4.47,1.13v129.86Z"/>
  <path class="cls-1" d="M479.49,577.12h-34.74v4.47c7.79,0,14.62,1.26,20.47,3.78,5.85,2.53,10.84,7.22,14.96,14.1v65.48c.39-.21.82-.39,1.2-.6,1.12-.62,2.19-1.28,3.27-1.93v-56.76l24.98,34.85c1.31-1.7,2.57-3.43,3.74-5.23,6.69-10.28,11.54-21.69,14.58-34.23l-17.16-23.94h-31.3Z"/>
</svg>